# xmcd
#
# Track frame offsets: 
#        150
#        13595
#        25138
#        36102
#        48738
#        62297
#        74867
#        86505
#        99074
#        110450
#        122415
#        134506
#        153174
#        165192
#        174260
#        182265
#
# Disc length: 2640 seconds
#
# Revision: 0
# Processed by: cddbd v1.5.2PL0 Copyright (c) Steve Scherf et al.
# Submitted via: ExactAudioCopyFreeDBPlugin 1.0
#
DISCID=bb0a4e10
DTITLE=Various Artist - Stax Country
DYEAR=2017
DGENRE=Country
TTITLE0=Becki Bluefield - Sweet Country Music
TTITLE1=Eddie Bond - That Glass
TTITLE2=Joyce Cobb - Your Love
TTITLE3=Paul Craft - For Linda (Child in the Cradle)
TTITLE4=O.B. McClinton - The Finer Things in Life
TTITLE5=Karen Casey - The River's Too Wide
TTITLE6=Roland Eaton - Hippy from the Hills
TTITLE7=Connie Eaton - I Wanna Be Wrong Right Now
TTITLE8=Cliff Cochran - All the Love You'll Ever Need
TTITLE9=Paige O'Brian - Satisfied Woman
TTITLE10=Danny Bryan - My Girl
TTITLE11=Daaron Lee - Long Black Train
TTITLE12=Frank Hobson and Becky Durning - A Truer Love You'll Never Fi
TTITLE12=nd
TTITLE13=Roger Hallmark - Truck Driver's Heaven
TTITLE14=Dale Yard - Purple Cow
TTITLE15=Lee Denson - A Mom and a Dad for Christmas
EXTD=
EXTT0=
EXTT1=
EXTT2=
EXTT3=
EXTT4=
EXTT5=
EXTT6=
EXTT7=
EXTT8=
EXTT9=
EXTT10=
EXTT11=
EXTT12=
EXTT13=
EXTT14=
EXTT15=
PLAYORDER=
